<?xml version="1.0" standalone="no"?>
<!DOCTYPE svg PUBLIC "-//W3C//DTD SVG 20010904//EN"
 "http://www.w3.org/TR/2001/REC-SVG-20010904/DTD/svg10.dtd">
<svg version="1.0" xmlns="http://www.w3.org/2000/svg"
 width="300.000000pt" height="200.000000pt" viewBox="0 0 300.000000 200.000000"
 preserveAspectRatio="xMidYMid meet">
<metadata>
Created by potrace 1.10, written by Peter Selinger 2001-2011
</metadata>
<g transform="translate(0.000000,200.000000) scale(0.100000,-0.100000)"
fill="#000000" stroke="none">
<path d="M1290 1523 c-17 -5 -37 -13 -92 -38 -36 -16 -149 -123 -157 -148 -2
-6 -9 -19 -16 -27 -8 -8 -22 -42 -34 -75 -28 -84 -16 -219 25 -295 60 -110
201 -190 335 -190 l31 0 -4 221 c-3 218 -3 221 -27 240 -13 10 -36 19 -52 19
-16 0 -29 5 -29 10 0 6 60 10 160 10 100 0 160 -4 160 -10 0 -5 -14 -10 -30
-10 -19 0 -40 -9 -55 -25 -25 -24 -25 -25 -25 -224 l0 -201 66 37 c59 32 75
36 138 37 113 0 215 -55 301 -164 44 -56 63 -66 37 -20 -9 16 -20 30 -24 30
-5 0 -8 7 -8 16 0 8 -4 12 -10 9 -5 -3 -10 -3 -10 2 0 13 -46 63 -58 63 -6 0
-12 4 -14 9 -7 19 -111 61 -179 72 -57 9 -81 8 -113 -2 -23 -7 -43 -13 -46
-14 -3 0 -15 -6 -27 -13 -31 -17 -33 -5 -27 180 6 154 12 186 36 172 4 -3 8 0
8 5 0 6 8 11 18 11 37 0 56 42 25 55 -21 8 -319 8 -332 0 -5 -3 -12 -1 -16 5
-3 5 5 14 20 20 14 5 28 17 31 25 4 8 12 15 19 15 7 0 16 7 19 16 7 19 -10 44
-29 44 -23 0 -37 26 -21 39 32 27 184 36 253 15 63 -19 78 -12 22 10 -65 27
-173 32 -245 11 -116 -33 -203 -108 -258 -224 -28 -60 -31 -75 -31 -161 0 -78
4 -104 23 -145 15 -33 18 -45 7 -35 -8 9 -24 43 -36 75 -31 88 -24 228 15 305
83 164 263 252 438 215 36 -7 81 -21 98 -30 18 -9 34 -14 37 -12 9 10 -42 36
-97 50 -30 8 -48 17 -39 20 17 7 -160 7 -181 0z m18 -154 c12 -5 22 -10 22
-11 0 -2 -30 -3 -67 -3 -45 0 -80 -6 -102 -18 -19 -9 -36 -15 -39 -12 -3 2 15
14 39 25 29 13 37 20 24 21 -17 1 -16 2 5 9 26 8 79 3 118 -11z m-58 -63 c-64
-18 -110 -43 -152 -84 -21 -20 -38 -31 -38 -25 0 6 21 30 46 52 47 41 49 56 5
24 -14 -9 -21 -11 -16 -4 15 25 89 51 145 50 l55 -1 -45 -12z m-78 -91 c-76
-70 -150 -205 -112 -205 6 0 10 7 10 14 0 21 47 106 54 99 3 -4 6 -2 6 3 0 9
106 124 114 124 2 0 6 -9 9 -20 4 -15 14 -20 37 -20 17 0 29 -4 26 -9 -3 -5 3
-11 14 -14 13 -3 20 -13 19 -29 0 -12 0 -99 0 -192 1 -93 -1 -171 -4 -175 -15
-14 -85 -6 -133 15 -29 13 -56 24 -60 24 -26 2 -63 53 -87 123 -25 71 -27 82
-16 120 7 23 26 59 42 79 16 21 23 35 15 32 -8 -3 -27 -23 -42 -45 -15 -22
-29 -37 -32 -35 -6 6 33 68 56 89 20 19 122 77 135 77 5 0 -18 -25 -51 -55z"/>
<path d="M950 1090 c-3 -76 1 -125 13 -132 6 -4 8 -10 4 -14 -4 -4 -1 -14 5
-22 7 -8 13 -19 14 -26 4 -26 69 -109 103 -132 57 -37 144 -64 203 -63 l53 1
-57 9 c-180 26 -301 160 -327 361 -8 60 -9 61 -11 18z"/>
<path d="M1430 930 c0 -6 7 -10 15 -10 8 0 15 2 15 4 0 2 -7 6 -15 10 -8 3
-15 1 -15 -4z"/>
<path d="M1655 821 c-38 -10 -97 -42 -158 -85 -74 -54 -151 -79 -222 -73 -71
5 -120 28 -199 92 -31 26 -60 45 -62 42 -9 -8 78 -92 109 -105 15 -6 27 -16
27 -22 0 -6 4 -9 9 -5 14 8 25 -35 12 -48 -14 -14 -14 -52 0 -80 25 -48 68
-73 119 -69 60 5 70 7 70 16 0 5 3 7 6 3 12 -11 104 78 104 101 0 9 3 12 6 9
7 -7 39 14 88 57 16 14 55 33 88 42 32 9 56 19 53 23 -6 5 84 30 113 31 9 0
11 -7 7 -19 -4 -13 3 -29 20 -48 15 -15 24 -21 20 -13 -5 12 -4 12 7 -1 7 -8
27 -24 45 -34 31 -18 33 -18 53 0 11 10 20 14 20 9 0 -5 10 -15 21 -23 l22
-13 -21 29 c-38 54 -132 134 -185 159 -60 27 -127 37 -172 25z m65 -15 c0 -3
-27 -17 -60 -32 -33 -15 -65 -33 -71 -40 -6 -8 13 -3 43 11 57 26 198 46 198
28 0 -6 -29 -13 -64 -15 -74 -6 -169 -46 -248 -105 l-50 -36 15 29 c26 50 101
114 163 139 59 25 74 29 74 21z m168 -83 c5 -17 -26 -29 -40 -15 -6 6 -7 15
-3 22 9 14 37 9 43 -7z m42 -37 c0 -17 -27 -29 -35 -16 -4 6 -3 15 0 20 9 15
35 12 35 -4z m-450 2 c0 -2 -7 -25 -15 -53 -27 -87 -89 -135 -175 -135 -44 0
-56 5 -81 29 -16 16 -29 39 -29 50 0 25 33 61 55 61 18 0 65 -47 65 -65 0 -7
8 -19 18 -28 28 -26 52 -2 55 53 2 43 4 46 47 67 42 20 60 26 60 21z m480 -39
c0 -5 -7 -9 -15 -9 -15 0 -20 12 -9 23 8 8 24 -1 24 -14z m-612 -46 c2 -49
-28 -38 -41 14 -4 19 -1 22 17 21 19 -2 23 -9 24 -35z"/>
<path d="M1405 770 c-18 -8 -17 -9 7 -9 15 -1 30 4 33 9 7 12 -12 12 -40 0z"/>
</g>
</svg>
